# xmcd CD database file
#
# Track frame offsets:
#	150
#	31339
#	56181
#	86148
#	112233
#	129269
#	154083
#	178655
#	203604
#	224202
#	244143
#	267985
#	295609
#
# Disc length: 4166 seconds
#
# Revision: 1
# Processed by: cddbd v1.5.1PL0 Copyright (c) Steve Scherf et al.
# Submitted via: CDex 1.51
#
DISCID=c710440d
DTITLE=Dzem - the singles
DYEAR=1900
DGENRE=
TTITLE0=outsider
TTITLE1=whisky
TTITLE2=list do M
TTITLE3=sen o Victori
TTITLE4=Bo¿e daj dom
TTITLE5=naiwne pytania
TTITLE6=czerwony jak cegla
TTITLE7=blues
TTITLE8=jak malowany ptak
TTITLE9=peklo niebo
TTITLE10=aleja roz
TTITLE11=paw
TTITLE12=wokol sami lunatycy
EXTD=
EXTT0=
EXTT1=
EXTT2=
EXTT3=
EXTT4=
EXTT5=
EXTT6=
EXTT7=
EXTT8=
EXTT9=
EXTT10=
EXTT11=
EXTT12=
PLAYORDER=
